<svg xmlns="http://www.w3.org/2000/svg" version="1.1" xmlns:xlink="http://www.w3.org/1999/xlink" width="1024" height="1024"><svg width="1024" height="1024" viewBox="0 0 1024 1024" fill="none" xmlns="http://www.w3.org/2000/svg">
<path d="M126.02 265.942C126.02 293.787 132.981 318.538 146.903 340.195C161.599 361.852 179.389 380.802 200.272 397.044C221.156 413.287 249.387 433.011 284.967 456.215C323.64 480.965 354.579 502.622 377.783 521.186C400.987 539.749 420.71 562.566 436.953 589.637C453.195 615.935 461.317 646.487 461.317 681.293C461.317 721.513 450.488 757.479 428.831 789.191C407.174 820.13 377.009 844.494 338.336 862.284C300.436 879.3 257.896 887.808 210.714 887.808C176.682 887.808 140.329 883.167 101.656 873.886C63.7558 863.831 38.2315 853.002 25.0826 841.4C21.2152 838.306 18.1214 835.599 15.801 833.279C14.2541 830.185 13.4806 825.544 13.4806 819.356L10 634.885V633.725C10 630.631 11.9337 629.084 15.801 629.084C19.6683 628.31 21.9887 629.471 22.7622 632.565C45.9661 679.746 66.0762 718.032 83.0924 747.424C100.882 776.816 122.926 802.727 149.224 825.157C176.295 847.588 206.847 858.803 240.879 858.803C271.818 858.803 297.342 850.682 317.452 834.439C337.562 817.423 347.617 788.804 347.617 748.584C347.617 714.552 339.883 684.773 324.414 659.249C309.718 633.725 291.541 612.068 269.884 594.278C248.227 576.488 218.449 555.218 180.549 530.467C143.423 506.49 114.418 485.993 93.5342 468.977C73.4241 451.96 56.0212 431.464 41.3253 407.486C26.6295 383.509 19.2816 355.277 19.2816 322.792C19.2816 281.798 30.8836 247.379 54.0875 219.534C78.0649 190.916 108.617 170.032 145.743 156.884C182.869 142.961 221.929 136 262.923 136C289.994 136 317.452 138.707 345.297 144.121C373.142 148.762 395.572 154.563 412.589 161.524C419.55 164.618 424.19 168.099 426.511 171.966C428.831 175.06 429.991 179.314 429.991 184.728V355.277C429.991 357.598 428.058 359.531 424.19 361.078C420.323 361.852 418.003 361.078 417.229 358.758L407.948 336.714C388.611 287.986 365.794 246.605 339.496 212.573C313.972 178.541 278.006 161.524 231.598 161.524C200.659 161.524 175.135 170.419 155.025 188.209C135.688 205.999 126.02 231.91 126.02 265.942Z" fill="#3D9D68"></path>
<path d="M891.342 880.847C888.248 882.394 884.381 883.167 879.74 883.167C864.271 883.167 849.962 873.499 836.813 854.162C823.664 834.052 817.089 807.754 817.089 775.269V578.035C817.089 528.533 812.835 492.567 804.327 470.137C796.593 447.706 783.057 436.491 763.72 436.491C722.727 436.491 699.523 468.203 694.109 531.627C691.788 554.831 684.827 571.461 673.225 581.516C662.397 591.571 646.927 596.598 626.817 596.598C607.481 596.598 593.171 592.731 583.89 584.996C575.382 576.488 571.128 565.66 571.128 552.511C571.128 529.307 584.663 507.263 611.735 486.38C638.806 464.723 671.291 447.32 709.191 434.171C747.864 421.022 781.897 414.447 811.289 414.447C845.321 414.447 872.779 425.276 893.663 446.933C915.32 467.816 926.148 499.915 926.148 543.229V748.584C926.148 771.015 930.015 788.418 937.75 800.793C946.258 813.169 957.86 819.356 972.556 819.356C983.384 819.356 994.6 816.649 1006.2 811.235H1007.36C1010.46 811.235 1012.39 813.169 1013.16 817.036C1014.71 820.13 1013.94 822.45 1010.84 823.997L891.342 880.847ZM668.584 882.007C635.325 882.007 610.188 874.659 593.171 859.963C576.155 845.267 567.647 824.771 567.647 798.473C567.647 777.589 572.675 760.96 582.73 748.584C592.785 735.435 605.16 725.38 619.856 718.419C635.325 710.684 656.595 702.176 683.667 692.895L712.672 682.453L828.691 639.526L833.332 656.929L767.201 687.094C764.881 687.867 757.146 690.961 743.997 696.375C730.848 701.016 719.246 709.138 709.191 720.74C699.91 732.341 695.269 745.877 695.269 761.346C695.269 779.91 701.07 794.605 712.672 805.434C725.047 815.489 738.97 820.516 754.439 820.516C766.814 820.516 779.576 816.262 792.725 807.754L850.735 768.308L851.895 786.871L770.682 844.881C752.892 858.03 736.262 867.698 720.793 873.886C705.324 879.3 687.921 882.007 668.584 882.007Z" fill="#3D9D68"></path>
</svg><style>@media (prefers-color-scheme: light) { :root { filter: none; } }
@media (prefers-color-scheme: dark) { :root { filter: none; } }
</style></svg>